<?xml version="1.0" encoding="UTF-8" standalone="no"?>
<!-- Created with Inkscape (http://www.inkscape.org/) -->

<svg
   xmlns:dc="http://purl.org/dc/elements/1.1/"
   xmlns:cc="http://creativecommons.org/ns#"
   xmlns:rdf="http://www.w3.org/1999/02/22-rdf-syntax-ns#"
   xmlns:svg="http://www.w3.org/2000/svg"
   xmlns="http://www.w3.org/2000/svg"
   xmlns:sodipodi="http://sodipodi.sourceforge.net/DTD/sodipodi-0.dtd"
   xmlns:inkscape="http://www.inkscape.org/namespaces/inkscape"
   width="25.170469mm"
   height="28.309204mm"
   viewBox="0 0 89.186702 100.3082"
   id="svg2"
   version="1.1"
   inkscape:version="0.91 r13725"
   sodipodi:docname="icon_white.svg">
  <defs
     id="defs4">
    <filter
       style="color-interpolation-filters:sRGB;"
       inkscape:label="Invert"
       id="filter4970">
      <feColorMatrix
         type="hueRotate"
         values="180"
         result="color1"
         id="feColorMatrix4972" />
      <feColorMatrix
         values="-1 0 0 0 1 0 -1 0 0 1 0 0 -1 0 1 -0.21 -0.72 -0.07 2 0 "
         result="color2"
         id="feColorMatrix4974" />
    </filter>
    <filter
       style="color-interpolation-filters:sRGB;"
       inkscape:label="Invert"
       id="filter4976">
      <feColorMatrix
         type="hueRotate"
         values="180"
         result="color1"
         id="feColorMatrix4978" />
      <feColorMatrix
         values="-1 0 0 0 1 0 -1 0 0 1 0 0 -1 0 1 -0.21 -0.72 -0.07 2 0 "
         result="color2"
         id="feColorMatrix4980" />
    </filter>
  </defs>
  <sodipodi:namedview
     id="base"
     pagecolor="#000000"
     bordercolor="#666666"
     borderopacity="1.0"
     inkscape:pageopacity="0"
     inkscape:pageshadow="2"
     inkscape:zoom="3.959798"
     inkscape:cx="50.429488"
     inkscape:cy="38.000739"
     inkscape:document-units="px"
     inkscape:current-layer="layer1"
     showgrid="false"
     showguides="false"
     fit-margin-top="0"
     fit-margin-left="0"
     fit-margin-right="0"
     fit-margin-bottom="0"
     inkscape:window-width="1114"
     inkscape:window-height="1040"
     inkscape:window-x="1689"
     inkscape:window-y="803"
     inkscape:window-maximized="0" />
  <metadata
     id="metadata7">
    <rdf:RDF>
      <cc:Work
         rdf:about="">
        <dc:format>image/svg+xml</dc:format>
        <dc:type
           rdf:resource="http://purl.org/dc/dcmitype/StillImage" />
        <dc:title></dc:title>
      </cc:Work>
    </rdf:RDF>
  </metadata>
  <g
     inkscape:label="Layer 1"
     inkscape:groupmode="layer"
     id="layer1"
     transform="translate(-244.35665,-497.80148)">
    <path
       style="fill:#33032f;fill-opacity:1;stroke:#000000;stroke-width:0.17857143;stroke-opacity:0"
       d="m 312.30782,529.35226 c -6.06613,-0.3761 -7.49453,9.14193 -1.6914,10.63086 5.99855,2.29269 10.00112,-7.28612 4.2246,-9.98437 -0.77484,-0.41814 -1.65379,-0.63811 -2.5332,-0.64649 z"
       id="path4966"
       inkscape:connector-curvature="0" />
    <path
       style="fill:#313e50;fill-opacity:1;stroke:#000000;stroke-width:0.17857143;stroke-opacity:0"
       d="m 303.5422,515.76632 c -6.07376,-0.0494 -7.16687,9.55501 -1.19141,10.79883 5.58442,1.6603 9.45128,-6.62201 4.50195,-9.72265 -0.97853,-0.63353 -2.12182,-1.14134 -3.31054,-1.07618 z"
       id="path4960"
       inkscape:connector-curvature="0" />
    <path
       style="fill:#ff595e;fill-opacity:1;stroke:#000000;stroke-width:0.17857143;stroke-opacity:0"
       d="m 286.88595,513.64718 c -5.79631,-0.14207 -6.81664,8.98768 -1.09571,10.07813 5.61449,1.584 8.91479,-7.36221 3.28516,-9.56836 -0.67442,-0.33958 -1.42804,-0.56648 -2.18945,-0.50977 z"
       id="path4956"
       inkscape:connector-curvature="0" />
    <path
       style="fill:#87bcde;fill-opacity:1;stroke:#000000;stroke-width:0.17857143;stroke-opacity:0"
       d="m 273.40548,521.49679 c -5.59499,0.17057 -5.66705,9.35033 0.043,9.47657 6.65255,0.43203 6.57847,-9.82713 -0.043,-9.47657 z"
       id="path4950"
       inkscape:connector-curvature="0" />
    <path
       d="m 291.01897,498.80902 c -2.25771,3.8e-4 -4.48107,0.16854 -6.62891,0.49804 -12.7507,2.06174 -22.00427,8.16103 -27.15039,17.75782 -1.08126,2.26257 -2.05226,4.59773 -2.625,6.88867 a 1.0074148,1.0074148 0 0 1 -0.004,0.0156 l -0.36524,1.37305 0,0.0684 a 1.0074148,1.0074148 0 0 1 -0.0137,0.16602 l -0.29883,1.79882 c -0.48088,2.88532 -0.4835,5.99132 -0.0937,9.10938 a 1.0074148,1.0074148 0 0 1 0.008,0.125 l 0,0.20117 0,0.89844 c 0,1.36832 -0.3394,2.70331 -0.89063,3.91601 a 1.0074148,1.0074148 0 0 1 -0.008,0.0156 l -7.29688,15.39062 c 0,0 0,0.002 0,0.002 -0.45758,0.99296 -0.39404,2.11137 0.24414,3.14843 0.62939,1.02275 1.55558,1.51954 2.74219,1.51954 l 4,0 a 1.0074148,1.0074148 0 0 1 1.00781,1.00781 l 0,20.10156 c 0,2.48498 1.80756,4.29102 4.29297,4.29102 a 1.0074148,1.0074148 0 0 1 0.0254,0 l 11.57422,0.30078 c 1.81597,0 3.3086,1.48967 3.3086,3.30664 l 0,5.5 c 0,0.46381 0.3403,0.89258 0.89062,0.89258 l 41.80078,0 c 0.41257,0 0.48216,0.0189 0.65625,-0.44532 a 1.0074148,1.0074148 0 0 1 0.15625,-0.27539 c 0.11223,-0.14028 0.15216,-0.47241 0.0332,-0.84179 l -0.27149,-0.63086 a 1.0074148,1.0074148 0 0 1 -0.004,-0.0117 c -3.46806,-8.36415 -3.93063,-15.77443 -1.29687,-21.88477 a 1.0074148,1.0074148 0 0 1 0.008,-0.0176 c 1.5762,-3.46764 3.70608,-5.59669 5.00586,-6.89648 l 0.40039,-0.40039 a 1.0074148,1.0074148 0 0 1 0.004,-0.002 c 11.09703,-10.99883 14.65517,-23.72403 10.83398,-38.12696 a 1.0074148,1.0074148 0 0 1 -0.008,-0.0312 c 0,0 -0.28336,-1.23118 -0.38281,-1.63476 -0.14952,-0.33642 -0.26167,-0.6901 -0.375,-1.06446 -0.0654,-0.21604 -0.12366,-0.42045 -0.16797,-0.58593 -0.0222,-0.0827 -0.0392,-0.15431 -0.0547,-0.22071 -0.001,-0.005 -0.003,-0.0218 -0.004,-0.0254 -5.88199,-17.08229 -23.25528,-25.19994 -39.05274,-25.19726 z m 39.6543,27.09375 c 0.0231,0.0519 0.039,0.10737 0.0645,0.1582 l -0.0762,-0.20703 c 0.003,0.0105 0.009,0.0368 0.0117,0.0488 z M 290.9428,501.92816 c 14.77519,-0.0492 31.07109,7.44375 36.49609,23.28125 0,0 0.4,1.29922 0.5,1.69922 l 0.40039,1.60156 c 3.5,13.3 0.10039,25.3 -10.09961,35.5 l -0.30078,0.29883 c -1.4,1.5 -3.89961,3.80039 -5.59961,7.90039 -2.7,6.3 -2.5,13.69961 0.5,22.09961 l -37.19922,0 -0.20117,0 0,-3.59961 c 0,-3.4 -2.7,-6.19922 -6,-6.19922 l -11.59961,-0.20117 c -0.8,0 -1.5,-0.6 -1.5,-1.5 l 0,-20.90039 c 0,-1.7 -1.30039,-3 -2.90039,-3 l -4.90039,0 c -0.2,0 -0.29844,-0.0992 -0.39844,-0.19922 -0.1,-0.2 -0.1,-0.4 0,-0.5 l 7.29883,-15.40039 c 0.8,-1.6 1.20117,-3.29961 1.20117,-5.09961 0,-0.4 -0.002,-1 -0.10156,-1.5 -0.3,-2.8 -0.29844,-5.59922 0.10156,-8.19922 l 0.29883,-1.70117 0.30078,-1.29883 c 0.6,-2.2 1.40039,-4.30078 2.40039,-6.30078 4.7,-8.8 13.29961,-14.40078 25.09961,-16.30078 2.0125,-0.3125 4.09239,-0.47344 6.20313,-0.48047 z"
       id="path4944"
       inkscape:connector-curvature="0"
       style="filter:url(#filter4970)" />
    <path
       style="fill:none;stroke:#000000;stroke-width:34;stroke-miterlimit:10"
       inkscape:connector-curvature="0"
       class="st0"
       d="M -1607.1148,-265.00461"
       id="path3544" />
    <path
       id="path3548"
       d="m 267.27093,334.56682 c -0.8,0 -1.5,-0.7 -1.5,-1.5 l 0,-3.5 c 0,-0.8 0.7,-1.5 1.5,-1.5 0.8,0 1.5,0.7 1.5,1.5 l 0,3.5 c 0,0.8 -0.7,1.5 -1.5,1.5 z"
       inkscape:connector-curvature="0" />
    <path
       id="path3550"
       d="m 257.57093,338.06682 c -0.4,0 -0.8,-0.1 -1.1,-0.4 l -2.2,-2.2 c -0.6,-0.6 -0.6,-1.6 0,-2.2 0.6,-0.6 1.6,-0.6 2.2,0 l 2.2,2.2 c 0.6,0.6 0.6,1.6 0,2.2 -0.3,0.3 -0.7,0.4 -1.1,0.4 z"
       inkscape:connector-curvature="0" />
    <path
       id="path3552"
       d="m 253.47093,346.76682 -3.5,0 c -0.8,0 -1.5,-0.7 -1.5,-1.5 0,-0.8 0.7,-1.5 1.5,-1.5 l 3.5,0 c 0.8,0 1.5,0.7 1.5,1.5 0,0.8 -0.7,1.5 -1.5,1.5 z"
       inkscape:connector-curvature="0" />
    <path
       id="path3554"
       d="m 284.57093,346.76682 -3.5,0 c -0.8,0 -1.5,-0.7 -1.5,-1.5 0,-0.8 0.7,-1.5 1.5,-1.5 l 3.5,0 c 0.8,0 1.5,0.7 1.5,1.5 0,0.8 -0.6,1.5 -1.5,1.5 z"
       inkscape:connector-curvature="0" />
    <path
       id="path3556"
       d="m 277.17093,338.06682 c -0.4,0 -0.8,-0.1 -1.1,-0.4 -0.6,-0.6 -0.6,-1.6 0,-2.2 l 2.2,-2.2 c 0.6,-0.6 1.6,-0.6 2.2,0 0.6,0.6 0.6,1.6 0,2.2 l -2.2,2.2 c -0.3,0.3 -0.7,0.4 -1.1,0.4 z"
       inkscape:connector-curvature="0" />
    <path
       id="path3558"
       d="m 267.27093,365.76682 c -3.3,0 -5.9,-2.7 -5.9,-5.9 0,-2.3 -0.7,-4.5 -2,-6.1 -1.5,-1.9 -2.2,-4.2 -2.2,-6.5 0.1,-5.1 4.5,-9.5 9.6,-9.8 2.8,-0.1 5.5,0.8 7.5,2.8 2,1.9 3.2,4.6 3.2,7.3 0,2.2 -0.7,4.3 -2,6 -1.4,1.9 -2.2,4.1 -2.2,6.3 l 0,0.1 c -0.1,3.1 -2.7,5.8 -6,5.8 z m 0,-25.4 c -0.1,0 -0.3,0 -0.4,0 -3.5,0.2 -6.6,3.4 -6.7,6.9 0,1.7 0.5,3.2 1.5,4.6 1.7,2.2 2.7,5 2.7,8 0,1.7 1.3,2.9 2.9,2.9 1.6,0 2.9,-1.3 2.9,-2.9 l 0,-0.1 c 0,-2.8 1,-5.7 2.8,-8.1 0.9,-1.2 1.4,-2.7 1.4,-4.2 0,-2 -0.8,-3.8 -2.2,-5.1 -1.4,-1.3 -3.1,-2 -4.9,-2 z"
       inkscape:connector-curvature="0" />
    <g
       transform="matrix(0,0.7123871,-0.7123871,0,1035.9838,471.40328)"
       id="g4844"
       style="filter:url(#filter4976)">
      <path
         inkscape:connector-curvature="0"
         d="m 89.985143,997.91316 c -13.924899,0 -24.3485,5.82624 -31.0938,14.25004 -6.7451,8.4238 -9.9062,19.3417 -9.9062,29.75 0,9.877 2.048509,20.3017 7.228509,29.2285 5.18,8.9268 13.698891,16.4937 23.708991,16.7715 5.1695,-0.019 8.9375,-2.245 11.7495,-5.4688 5.4681,-6.4257 7.3566,-17.4462 8.3125,-25.3125 1.440897,-11.4595 5.973497,-14.9119 10.749997,-18.2188 2.3907,-1.6551 4.931,-3.1847 6.9375,-5.625 2.007,-2.4403 3.313,-5.7721 3.313,-10.3749 0,-13.3333 -13.1373,-25.00005 -30.999997,-25.00004 z m 0,4.00004 c 16.137297,0 26.999997,10.3333 26.999997,21 0,3.897 -0.9441,6.034 -2.4062,7.8124 -1.4624,1.7784 -3.6095,3.1864 -6.0938,4.9063 -4.9685,3.4397 -10.935996,8.519 -12.499997,21.0313 -1.4752,12.7848 -4.4038,19.6538 -7.375,23.1875 -2.9498,3.5083 -5.859799,4.0552 -8.5625,4.0625 -9.9422,-0.488 -15.372447,-7.5216 -20.395991,-14.8028 -5.023544,-7.2812 -6.666509,-18.0742 -6.666509,-27.1972 0,-9.5919 2.9649,-19.6738 9.0312,-27.25 6.0665,-7.5762 15.1404,-12.75 27.9688,-12.75 z m -1,5 c -4.9469,0 -9,4.0531 -9,9 0,4.9469 4.0531,9 9,9 4.9469,0 9,-4.0531 9,-9 0,-4.9469 -4.0531,-9 -9,-9 z m 0,4 c 2.7851,0 5,2.2149 5,5 0,2.7851 -2.2149,5 -5,5 -2.7851,0 -5,-2.2149 -5,-5 0,-2.7851 2.2149,-5 5,-5 z m -19,8 c -4.9469,0 -9,4.0531 -9,8.9999 0,4.9469 4.0531,9 9,9 4.9469,0 9,-4.0531 9,-9 0,-4.9468 -4.0531,-8.9999 -9,-8.9999 z m 0,4 c 2.7851,0 5,2.2149 5,4.9999 0,2.7851 -2.2149,5 -5,5 -2.7851,0 -5,-2.2149 -5,-5 0,-2.785 2.2149,-4.9999 5,-4.9999 z m -3.5,20 c -4.6707,0 -8.5,3.8293 -8.5,8.5 0,4.6707 3.8292,8.5 8.5,8.5 4.6708,0 8.5,-3.8293 8.5,-8.5 0,-4.6707 -3.8293,-8.5 -8.5,-8.5 z m 0,4 c 2.5091,0 4.5,1.9909 4.5,4.5 0,2.5089 -1.991,4.5 -4.5,4.5 -2.509,0 -4.5,-1.9911 -4.5,-4.5 0,-2.5091 1.9909,-4.5 4.5,-4.5 z m 10.5,15 c -4.3946,0 -8,3.6054 -8,8 0,4.3946 3.6054,8 8,8 4.3946,0 8,-3.6054 8,-8 0,-4.3946 -3.6054,-8 -8,-8 z m 0,4 c 2.2328,0 4,1.7672 4,4 0,2.2328 -1.7672,4 -4,4 -2.2328,0 -4,-1.7672 -4,-4 0,-2.2328 1.7672,-4 4,-4 z"
         style="color:#000000;text-indent:0;text-transform:none;direction:ltr;block-progression:tb;baseline-shift:baseline;display:inline;overflow:visible;visibility:visible;fill:#000000;fill-opacity:1;stroke:none;marker:none;enable-background:accumulate"
         visibility="visible"
         display="inline"
         overflow="visible"
         id="path4846"
         sodipodi:nodetypes="scsscccccsssscscsczscsssssssssssssssssssssssssssssssssssssssss" />
    </g>
    <path
       style="fill:#313e50;fill-opacity:0;stroke:#000000;stroke-width:0.17857143;stroke-opacity:0"
       d="m 66.537352,40.150535 c -1.365977,-0.653538 -2.053571,-1.715612 -2.053571,-3.171995 0,-1.057881 0.344651,-1.831458 1.118799,-2.511169 0.828818,-0.727712 1.755082,-1.02434 2.765981,-0.88578 2.449122,0.335689 3.746006,3.012354 2.494351,5.148142 -0.265713,0.453404 -0.763623,0.997735 -1.106466,1.209624 -0.888254,0.548971 -2.317141,0.642709 -3.219094,0.211178 z"
       id="path4964"
       inkscape:connector-curvature="0"
       transform="translate(244.35665,497.80148)" />
  </g>
  <style
     id="style3542"
     type="text/css">
	.st0{fill:none;stroke:#000000;stroke-width:34;stroke-miterlimit:10;}
</style>
</svg>
